<svg width="2500" height="2500" viewBox="0 0 2500 2500" fill="none" xmlns="http://www.w3.org/2000/svg">
<g clip-path="url(#clip0_342_1343)">
<path d="M2236.46 2169.69L1936.35 1869.58C1926.92 1860.19 1914.62 1854.22 1901.4 1852.64C1888.19 1851.05 1874.82 1853.94 1863.44 1860.83C1752.14 1927.98 1624.62 1963.46 1494.63 1963.46C1364.65 1963.46 1237.13 1927.98 1125.83 1860.83C1114.43 1854.01 1101.08 1851.17 1087.88 1852.75C1074.68 1854.33 1062.38 1860.25 1052.92 1869.58L752.812 2169.69C743.408 2178.85 737.266 2190.83 735.328 2203.82C733.39 2216.8 735.763 2230.06 742.083 2241.56C746.346 2249.22 752.252 2255.83 759.374 2260.94C972.994 2416.25 1230.32 2499.9 1494.43 2499.9C1758.54 2499.9 2015.86 2416.25 2229.48 2260.94C2236.57 2255.83 2242.46 2249.25 2246.76 2241.64C2251.06 2234.03 2253.66 2225.58 2254.37 2216.88C2255 2208.18 2253.71 2199.45 2250.62 2191.31C2247.53 2183.16 2242.69 2175.78 2236.46 2169.69ZM2236.67 329.271L1936.67 629.271C1927.26 638.738 1914.93 644.753 1901.68 646.341C1888.42 647.929 1875.02 644.997 1863.65 638.021C1708.36 544.432 1523.29 513.399 1345.97 551.215C1168.65 589.032 1012.34 692.867 908.749 841.667C830.12 954.904 785.914 1088.46 781.458 1226.25C776.884 1364.04 812.264 1500.2 883.333 1618.33C890.198 1629.7 893.075 1643.04 891.509 1656.22C889.943 1669.41 884.023 1681.7 874.687 1691.15L574.583 1991.15C568.576 1997.29 561.301 2002.05 553.266 2005.09C545.231 2008.13 536.628 2009.38 528.059 2008.76C519.49 2008.13 511.161 2005.65 503.652 2001.47C496.143 1997.3 489.635 1991.53 484.583 1984.58C296.613 1726.28 214.74 1405.78 255.795 1088.97C296.849 772.157 457.711 483.111 705.312 281.25C919.092 106.777 1184.63 8.01218 1460.47 0.379951C1736.3 -7.25228 2006.9 76.6777 2230 239.063C2236.96 244.118 2242.73 250.635 2246.91 258.157C2251.08 265.679 2253.56 274.023 2254.17 282.604C2254.81 291.186 2253.57 299.805 2250.55 307.863C2247.53 315.921 2242.79 323.225 2236.67 329.271ZM1495.21 1606.46C1542.09 1606.46 1588.51 1597.22 1631.82 1579.29C1675.13 1561.35 1714.48 1535.05 1747.63 1501.9C1780.78 1468.75 1807.07 1429.4 1825.01 1386.09C1842.95 1342.78 1852.19 1296.36 1852.19 1249.48C1852.19 1202.6 1842.95 1156.18 1825.01 1112.87C1807.07 1069.56 1780.78 1030.21 1747.63 997.057C1714.48 963.908 1675.13 937.614 1631.82 919.674C1588.51 901.734 1542.09 892.5 1495.21 892.5C1400.53 892.5 1309.73 930.11 1242.79 997.057C1175.84 1064 1138.23 1154.8 1138.23 1249.48C1138.23 1344.16 1175.84 1434.96 1242.79 1501.9C1309.73 1568.85 1400.53 1606.46 1495.21 1606.46Z" fill="white"/>
</g>
<defs>
<clipPath id="clip0_342_1343">
<rect width="2500" height="2500" fill="white"/>
</clipPath>
</defs>
</svg>
