<svg width="2496" height="968" viewBox="0 0 2496 968" fill="none" xmlns="http://www.w3.org/2000/svg">
<path fill-rule="evenodd" clip-rule="evenodd" d="M721.714 723.496H795.007C796.393 723.599 797.785 723.392 799.081 722.889C800.377 722.386 801.544 721.6 802.497 720.588C803.45 719.576 804.165 718.364 804.59 717.041C805.015 715.717 805.139 714.315 804.953 712.938V418.848C805.055 350.299 781.695 300.417 734.873 269.202C700.652 247.051 660.563 235.696 619.808 236.61C558.736 237.384 499.402 257.055 449.964 292.919C444.303 299.04 443.231 303.936 446.751 308.22L485.004 362.387C487.911 367.283 492.501 368.048 498.775 364.376C533.845 338.22 576.082 323.429 619.808 321.991C632.354 320.838 644.998 322.532 656.798 326.947C668.598 331.362 679.249 338.383 687.957 347.488C696.665 356.593 703.205 367.547 707.089 379.532C710.974 391.517 712.102 404.224 710.391 416.706C658.462 420.951 606.976 429.498 556.461 442.259C470.162 466.945 427.012 514.022 427.012 583.49C426.437 603.935 430.422 624.252 438.68 642.964C446.938 661.676 459.26 678.314 474.752 691.669C506.905 718.978 547.947 733.566 590.123 732.677C632.868 734.444 675.012 722.134 710.085 697.637V712.938C710.085 719.976 713.91 723.496 721.714 723.496ZM567.784 529.323C593.286 518 640.719 508.769 710.085 501.628L708.861 607.818C693.233 622.828 674.445 634.151 653.872 640.955C633.3 647.76 611.466 649.874 589.97 647.143C573.437 645.975 557.55 640.255 544.067 630.617C537.697 626.385 532.31 620.835 528.271 614.341C524.232 607.847 521.635 600.561 520.656 592.976C517.493 565.332 533.203 544.114 567.784 529.323ZM1075.48 967.703C1146.17 967.703 1200.95 947.71 1239.81 907.723C1278.17 867.735 1297.19 809.132 1296.89 731.911V257.573C1297.09 256.119 1296.95 254.637 1296.49 253.245C1296.02 251.853 1295.24 250.588 1294.2 249.549C1293.16 248.511 1291.9 247.728 1290.5 247.262C1289.11 246.795 1287.63 246.659 1286.18 246.862H1212.88C1211.44 246.685 1209.98 246.841 1208.6 247.319C1207.23 247.796 1205.99 248.583 1204.97 249.618C1203.95 250.653 1203.18 251.909 1202.72 253.288C1202.26 254.667 1202.13 256.133 1202.33 257.573V278.842C1163.69 250.355 1116.57 235.744 1068.59 237.376C1036.81 236.021 1005.21 242.817 976.795 257.118C948.379 271.42 924.094 292.751 906.247 319.084C872.604 367.597 855.439 425.636 857.283 484.643C855.159 545.719 873.229 605.79 908.695 655.558C927.209 680.702 951.607 700.921 979.75 714.446C1007.89 727.971 1038.92 734.388 1070.12 733.136C1117.87 735.578 1164.93 720.871 1202.78 691.669V747.213C1202.78 836.368 1159.99 880.945 1074.41 880.945C1036.92 880.945 998.207 861.054 958.73 821.577C957.761 820.564 956.598 819.757 955.309 819.205C954.021 818.653 952.634 818.366 951.232 818.363C949.661 818.292 948.092 818.539 946.619 819.092C945.146 819.644 943.801 820.489 942.664 821.577L892.782 871.459C890.937 873.648 890.017 876.47 890.217 879.326C890.417 882.183 891.721 884.849 893.853 886.76C908.083 899.154 920.324 909.253 931.035 917.362C941.746 925.472 950.926 932.052 958.73 937.101C994.332 957.258 1034.57 967.804 1075.48 967.703ZM1080.38 330.56C1144.23 330.56 1185.04 353.206 1202.78 398.498L1203.55 573.391C1185.8 618.682 1143.72 641.328 1077.31 641.328C1062.64 641.921 1048.01 639.513 1034.3 634.251C1020.59 628.989 1008.1 620.984 997.595 610.726C970.053 584.612 956.282 542.839 956.282 485.409C956.282 382.176 997.646 330.56 1080.38 330.56ZM1574.45 967.703C1645.25 967.601 1699.92 947.608 1738.48 907.723C1777.04 867.735 1796.42 809.132 1796.63 731.911V257.573C1796.82 256.133 1796.69 254.667 1796.23 253.288C1795.77 251.909 1795 250.653 1793.98 249.618C1792.96 248.583 1791.72 247.796 1790.35 247.319C1788.97 246.841 1787.51 246.685 1786.07 246.862H1712.78C1711.33 246.685 1709.87 246.841 1708.5 247.319C1707.12 247.796 1705.88 248.583 1704.86 249.618C1703.84 250.653 1703.07 251.909 1702.61 253.288C1702.15 254.667 1702.02 256.133 1702.22 257.573V278.842C1663.5 250.398 1616.35 235.794 1568.33 237.376C1536.55 236.05 1504.96 242.859 1476.55 257.158C1448.14 271.457 1423.85 292.772 1405.99 319.084C1372.4 367.615 1355.29 425.653 1357.17 484.643C1354.84 545.676 1372.75 605.769 1408.13 655.558C1426.58 680.655 1450.9 700.849 1478.96 714.373C1507.02 727.897 1537.97 734.339 1569.1 733.136C1616.89 735.561 1663.99 720.858 1701.91 691.669V747.213C1701.91 836.368 1659.07 880.945 1573.38 880.945C1535.89 880.945 1497.33 861.054 1457.7 821.577C1456.74 820.557 1455.58 819.745 1454.29 819.192C1453 818.64 1451.61 818.357 1450.21 818.363C1448.66 818.295 1447.11 818.544 1445.66 819.097C1444.22 819.65 1442.9 820.494 1441.79 821.577L1391.91 871.459C1390.96 872.526 1390.23 873.772 1389.77 875.125C1389.3 876.478 1389.12 877.909 1389.22 879.335C1389.32 880.761 1389.7 882.153 1390.35 883.428C1390.99 884.703 1391.89 885.836 1392.98 886.76C1407.06 899.154 1419.45 909.253 1430.16 917.362C1440.77 925.523 1449.95 932.103 1457.7 937.101C1493.31 957.238 1533.54 967.783 1574.45 967.703ZM1579.5 330.56C1643.36 330.56 1684.16 353.206 1701.91 398.498L1701.45 572.626C1683.8 617.917 1641.68 640.563 1575.06 640.563C1560.41 641.18 1545.79 638.783 1532.1 633.519C1518.42 628.255 1505.96 620.236 1495.5 609.961C1467.85 583.847 1454.03 542.074 1454.03 484.643C1454.03 381.411 1495.85 330.05 1579.5 330.56ZM1885.83 723.496H1958.97C1960.42 723.727 1961.9 723.615 1963.29 723.169C1964.69 722.722 1965.96 721.954 1967 720.926C1968.04 719.899 1968.83 718.64 1969.29 717.252C1969.76 715.865 1969.89 714.387 1969.68 712.938V11.2233C1969.89 9.77452 1969.76 8.29655 1969.29 6.90883C1968.83 5.52111 1968.04 4.26255 1967 3.23482C1965.96 2.2071 1964.69 1.43905 1963.29 0.992708C1961.9 0.546371 1960.42 0.434269 1958.97 0.66546H1885.83C1884.39 0.467028 1882.93 0.602036 1881.55 1.06006C1880.17 1.51809 1878.91 2.2869 1877.88 3.30714C1876.84 4.32739 1876.05 5.5718 1875.58 6.94435C1875.1 8.3169 1874.94 9.78087 1875.12 11.2233V712.938C1874.94 714.38 1875.1 715.844 1875.58 717.217C1876.05 718.589 1876.84 719.834 1877.88 720.854C1878.91 721.874 1880.17 722.643 1881.55 723.101C1882.93 723.559 1884.39 723.694 1885.83 723.496ZM2492.68 512.333C2493.16 510.961 2493.32 509.497 2493.14 508.054L2494.51 484.643C2497.23 452.207 2493.01 419.566 2482.14 388.885C2471.27 358.204 2454 330.186 2431.47 306.69C2410.7 284.409 2385.43 266.79 2357.34 255C2329.25 243.209 2298.97 237.515 2268.52 238.294C2237.86 237.093 2207.28 242.327 2178.77 253.659C2150.25 264.991 2124.43 282.17 2102.96 304.089C2080.33 327.419 2062.57 355.021 2050.73 385.284C2038.88 415.548 2033.17 447.868 2033.95 480.359C2032.77 513.759 2038.35 547.054 2050.37 578.24C2062.39 609.426 2080.59 637.86 2103.87 661.832C2127.44 685.565 2155.62 704.217 2186.67 716.639C2217.73 729.06 2251 734.987 2284.43 734.054C2348.23 735.152 2410.57 714.962 2461.62 676.674C2467.28 671.931 2467.28 667.034 2461.62 661.373L2411.74 610.42C2408.22 606.135 2402.86 606.135 2396.43 610.42C2365.79 632.186 2329.05 643.702 2291.47 643.317C2251.62 644.603 2212.69 631.208 2182.06 605.676C2156.92 583.196 2141.05 552.158 2137.54 518.612H2482.43C2483.87 518.811 2485.33 518.676 2486.71 518.218C2488.09 517.76 2489.35 516.991 2490.38 515.971C2491.42 514.95 2492.2 513.706 2492.68 512.333ZM2266.99 319.696C2299.16 319.063 2330.34 330.844 2354.05 352.594C2366.1 362.552 2375.82 375.027 2382.53 389.143C2389.25 403.258 2392.79 418.672 2392.91 434.302H2137.23C2142.57 402.255 2158.78 373.022 2183.13 351.523C2206.1 330.767 2236.03 319.406 2266.99 319.696Z" fill="#20BEFF"/>
<path d="M412.323 719.823C411.558 722.578 408.651 723.955 403.754 723.955H309.346C306.4 724.003 303.484 723.364 300.828 722.089C298.172 720.814 295.85 718.938 294.044 716.61L138.125 517.541L94.8224 559.008V712.938C95.0269 714.372 94.8948 715.834 94.4365 717.208C93.9782 718.582 93.2064 719.831 92.1821 720.855C91.1577 721.88 89.9091 722.652 88.5349 723.11C87.1607 723.568 85.6986 723.7 84.2645 723.496H10.9716C9.53753 723.7 8.07552 723.568 6.70131 723.11C5.3271 722.652 4.07842 721.88 3.05411 720.855C2.02979 719.831 1.25795 718.582 0.79968 717.208C0.34141 715.834 0.209289 714.372 0.413776 712.938V11.2233C0.209289 9.78921 0.34141 8.3272 0.79968 6.95299C1.25795 5.57879 2.02979 4.33011 3.05411 3.30579C4.07842 2.28147 5.3271 1.50963 6.70131 1.05136C8.07552 0.593094 9.53753 0.460974 10.9716 0.66546H84.2645C85.6986 0.460974 87.1607 0.593094 88.5349 1.05136C89.9091 1.50963 91.1577 2.28147 92.1821 3.30579C93.2064 4.33011 93.9782 5.57879 94.4365 6.95299C94.8948 8.3272 95.0269 9.78921 94.8224 11.2233V443.33L281.65 254.36C283.575 252.157 285.92 250.359 288.547 249.072C291.174 247.785 294.031 247.034 296.952 246.862H394.727C396.521 246.716 398.315 247.16 399.834 248.127C401.353 249.094 402.515 250.53 403.142 252.218C403.899 253.76 404.201 255.486 404.011 257.194C403.822 258.901 403.148 260.519 402.071 261.858L204.226 452.817L410.181 708.654C411.637 710.073 412.623 711.905 413.006 713.902C413.389 715.899 413.151 717.966 412.323 719.823Z" fill="white"/>
</svg>
