<svg width="3262" height="3157" viewBox="0 0 3262 3157" fill="none" xmlns="http://www.w3.org/2000/svg">
<g clip-path="url(#clip0_351_1358)">
<path d="M2677.9 896.385C2609.54 791.118 2512.53 710.66 2389.46 657.174C2278.99 609.175 2152.44 585.375 2013.32 586.386C1744.72 588.411 1451.81 683.65 1188.62 854.568C1100.7 911.659 1018.87 975.365 944.385 1044.67C860.547 1029.72 770.978 1025.45 683.842 1032.69C230.131 1089.53 50.0172 1438.71 50.0172 1438.71C50.0172 1438.71 458.037 1484.5 539.184 1704.18C496.848 1899.57 524.789 2083.87 621.059 2232.11C621.356 2232.57 621.695 2233.04 622.003 2233.51C622.307 2233.98 622.58 2234.46 622.904 2234.95C719.173 2383.2 876.151 2483.7 1071.88 2524.46C1239.57 2687.96 1115.45 3079.33 1115.45 3079.33C1115.45 3079.33 1507.68 3056.79 1744.17 2665.45C1786.22 2588.8 1818.71 2505.22 1839.19 2422.56C1932.81 2382.68 2024.27 2333.83 2112.19 2276.74C2375.39 2105.81 2581.54 1877.02 2692.64 1632.46C2750.16 1505.78 2779.91 1380.51 2780.97 1260.03C2782.17 1125.87 2748.1 1004.47 2679.77 899.247C2679.45 898.755 2679.13 898.321 2678.82 897.838L2677.9 896.385Z" fill="white"/>
<path d="M1285.26 1003.39C1772.62 686.9 2331.61 682.689 2533.78 993.997C2735.93 1305.28 2504.73 1814.25 2017.37 2130.74C1908.85 2201.21 1796.77 2256.16 1685.91 2295.63C1664.55 2476.39 1555.88 2779 1313.09 2861.68C1333.61 2744.78 1354.16 2556.42 1200.96 2367.6C1012.81 2351.53 856.963 2275.78 768.874 2140.14C566.669 1828.82 797.893 1319.89 1285.26 1003.39Z" fill="black"/>
<path d="M1739.23 1702.44C1803.98 1660.39 1822.38 1573.82 1780.33 1509.07C1738.29 1444.33 1651.72 1425.93 1586.97 1467.98C1522.23 1510.02 1503.83 1596.59 1545.87 1661.33C1587.92 1726.08 1674.49 1744.48 1739.23 1702.44ZM2146.8 1437.75C2211.55 1395.71 2229.95 1309.14 2187.9 1244.39C2145.86 1179.65 2059.29 1161.25 1994.54 1203.3C1929.8 1245.34 1911.4 1331.9 1953.45 1396.65C1995.5 1461.4 2082.06 1479.8 2146.8 1437.75ZM1331.62 1967.1C1396.36 1925.06 1414.75 1838.51 1372.72 1773.79C1330.68 1709.05 1244.12 1690.65 1179.4 1732.68C1114.65 1774.73 1096.26 1861.28 1138.3 1926.01C1180.34 1990.75 1266.89 2009.14 1331.62 1967.1Z" fill="white"/>
<path d="M1969.21 2056.58C1860.69 2127.05 1749.69 2183.65 1640.81 2226.18C1612.99 2371.97 1513.95 2607.98 1327.16 2722.97C1326.77 2775.44 1319.93 2822.57 1313.08 2861.67C1555.87 2778.99 1664.56 2476.39 1685.9 2295.62C1796.78 2256.16 1908.86 2201.19 2017.36 2130.72C2500.8 1816.77 2732.1 1313.45 2538.43 1001.52C2705.47 1272.44 2452.65 1742.63 1969.21 2056.58Z" fill="black"/>
</g>
<defs>
<clipPath id="clip0_351_1358">
<rect width="2500" height="2139" fill="white" transform="translate(0.166016 1362.34) rotate(-33)"/>
</clipPath>
</defs>
</svg>
